<?xml version="1.0" encoding="utf-8"?>
<!DOCTYPE svg PUBLIC "-//W3C//DTD SVG 1.1//EN" "http://www.w3.org/Graphics/SVG/1.1/DTD/svg11.dtd">
<svg version="1.1" id="Layer_1" xmlns="http://www.w3.org/2000/svg" xmlns:xlink="http://www.w3.org/1999/xlink" x="0px" y="0px"
	 width="29px" height="30px" viewBox="0 0 29 30" enable-background="new 0 0 29 30" xml:space="preserve">
<rect fill="#C53430" width="29" height="6"/>
<rect y="25" fill="#A7A9AC" width="29" height="5"/>
<g>
	<path d="M18.646,10.448c0.418,0.582,0.627,1.277,0.627,2.087c0,0.835-0.211,1.506-0.633,2.013
		c-0.236,0.285-0.584,0.544-1.043,0.779c0.696,0.254,1.225,0.655,1.579,1.206s0.532,1.219,0.532,2.004
		c0,0.811-0.203,1.537-0.607,2.181c-0.26,0.427-0.582,0.785-0.97,1.076c-0.437,0.334-0.95,0.562-1.545,0.687
		c-0.594,0.125-1.237,0.186-1.933,0.186h-6.16V8.992h6.607C16.77,9.017,17.951,9.502,18.646,10.448z M11.221,11.367v3.015h3.324
		c0.594,0,1.076-0.113,1.446-0.338c0.37-0.226,0.556-0.626,0.556-1.202c0-0.637-0.245-1.058-0.734-1.262
		c-0.422-0.142-0.961-0.213-1.617-0.213H11.221z M11.221,16.646v3.646h3.32c0.593,0,1.055-0.08,1.385-0.24
		c0.6-0.297,0.898-0.866,0.898-1.707c0-0.711-0.29-1.2-0.871-1.467c-0.324-0.147-0.78-0.226-1.367-0.231H11.221L11.221,16.646z"/>
</g>
</svg>
