<?xml version="1.0" encoding="utf-8"?>
<!-- Generator: Adobe Illustrator 16.0.0, SVG Export Plug-In . SVG Version: 6.00 Build 0)  -->
<!DOCTYPE svg PUBLIC "-//W3C//DTD SVG 1.1//EN" "http://www.w3.org/Graphics/SVG/1.1/DTD/svg11.dtd">
<svg version="1.1" id="Layer_1" xmlns="http://www.w3.org/2000/svg" xmlns:xlink="http://www.w3.org/1999/xlink" x="0px" y="0px"
	 width="248.738px" height="114.339px" viewBox="0 0 248.738 114.339" enable-background="new 0 0 248.738 114.339"
	 xml:space="preserve">
<g>
	<path fill="#231F20" d="M4.778,70.839c0,0-0.667-2.666-2.667-7.166s-2.499-7.168-1.833-9c0.666-1.834,3.166-2.502,8.333-0.834
		c5.167,1.666,4.333,1.834,5.333,0.834s1.5-15.168,2.667-23.168s2.5-14.666,2.5-14.666s4.834,7.666,5.667,14s1.332,21,2.666,22
		s5.668,0.166,10.834,0.5s7.167,0.334,8-0.334c0.833-0.666,3.833-17,4.333-20.332c0.5-3.334,0.5-7,0.5-7s1.667-1.5,5.167,4.332
		c3.5,5.834,4.334,9.666,4.5,14.334c0.166,4.666,0.166,7.166,1.333,7.666s3.666,2,10.833,2.168c7.167,0.166,20.166,2.5,24,4
		c3.834,1.5,16,10.167,13.5,23.833c-2.5,13.668-5.645,16.232-8,16.168c-6-0.168-6.999-4.336-5.166-19.334
		c0,0,3.183-13.787-11.667-13.334c-16.333,0.5-23.252,1.609-26,3.834c-1.434,1.16-1.607,7.119-3.167,13
		c-2.248,8.475-6.018,17.584-9.166,18.666c-4.099,1.408-3.5-3.5-4-6.832c-0.5-3.334-0.667-14.668,0.333-18.5
		c1-3.834-0.167-6.334-4.5-5.5c-4.333,0.832-11.001,2.5-11.667,4.332c-0.666,1.834,1.501,18.334-1.666,20.168
		c-3.167,1.832-5,3.5-8.667-0.668c-3.667-4.166-4.667-13.166-4.667-16.332c0-3.168-1-6.334-4-6.334S4.778,70.839,4.778,70.839z"/>
	<path fill="#231F20" d="M235.777,93.005c-13.832-8.832-48.498-14.666-48.498-14.666s7.412-15.73,7.666-31.667
		c0.172-10.885-2.668-18.834-4.5-21.668c-4.17-6.441-2.064-11.674-14-11.166c-3.002,0.127,2.654-14.135,0.334-13.834
		c-2.322,0.301-8.834,2.334-17.168,9.834c-7.109,6.398-17.666,15.834-20.5,19.166c0,0-7.332,8.334-12.832,26.334
		c-5.5,18-7.965,24.467-4.5,36.167c3.229,10.906,11.333,12.332,20.333,12s19.32-1.691,31.834-12.666
		c5.318-4.666,5.5-6.334,7.334-6.166c1.832,0.166,13.33,8.498,20.166,13.332c6.832,4.834,34.543,16.383,44,16.334
		C251.558,114.306,249.613,101.837,235.777,93.005z M133.111,91.173c-9.115-1.129-0.5-23.168-0.5-23.168s-0.262-0.994,18.49,4.164
		c13.334,3.666,18.416,8.535,18.416,8.535S157.39,94.177,133.111,91.173z M178.779,66.158c-1.834,4.334-2.668,7.5-4.834,7.834
		s-15.49-3.195-20.834-5.166c-9.195-3.395-17.834-6.668-16.166-11.834c1.666-5.166,9.834-21.834,20.834-25.166
		c11-3.334,21.619-6.367,25.5,2.666C186.917,42.962,180.613,61.826,178.779,66.158z"/>
	<path fill="#231F20" d="M102.111,46.839c0,0-2.128-6.576,0.205-13.242s4.656-11.117,5.795-10.424c1.891,1.148,0.726,4.32,3,8
		c1.718,2.777,0.334,11.998-1.333,13.666C108.111,46.505,105.144,47.642,102.111,46.839z"/>
</g>
</svg>
