<?xml version="1.0" encoding="utf-8"?>
<!DOCTYPE svg PUBLIC "-//W3C//DTD SVG 1.1//EN" "http://www.w3.org/Graphics/SVG/1.1/DTD/svg11.dtd">
<svg version="1.1" id="Layer_1" xmlns="http://www.w3.org/2000/svg" xmlns:xlink="http://www.w3.org/1999/xlink" x="0px" y="0px"
	 width="29px" height="30px" viewBox="0 0 29 30" enable-background="new 0 0 29 30" xml:space="preserve">
<rect fill="#A7A9AC" width="29" height="6"/>
<rect y="25" fill="#A7A9AC" width="29" height="5"/>
<g>
	<path d="M11.173,18.381c0.088,0.625,0.262,1.092,0.521,1.4c0.474,0.562,1.285,0.844,2.435,0.844c0.688,0,1.247-0.074,1.676-0.223
		c0.814-0.283,1.223-0.812,1.223-1.586c0-0.451-0.2-0.801-0.6-1.049c-0.398-0.24-1.032-0.454-1.898-0.64l-1.48-0.325
		c-1.455-0.32-2.455-0.67-2.999-1.048c-0.922-0.631-1.382-1.617-1.382-2.959c0-1.225,0.451-2.242,1.353-3.052
		c0.901-0.81,2.226-1.215,3.973-1.215c1.458,0,2.703,0.382,3.733,1.146c1.029,0.764,1.569,1.873,1.619,3.326H16.6
		c-0.051-0.822-0.418-1.407-1.103-1.753c-0.457-0.229-1.024-0.343-1.702-0.343c-0.755,0-1.357,0.148-1.807,0.445
		s-0.675,0.711-0.675,1.243c0,0.489,0.222,0.854,0.666,1.095c0.285,0.161,0.891,0.35,1.816,0.566l2.4,0.566
		c1.052,0.248,1.841,0.579,2.365,0.993c0.815,0.644,1.223,1.574,1.223,2.793c0,1.249-0.483,2.286-1.448,3.112
		c-0.967,0.825-2.331,1.238-4.094,1.238c-1.8,0-3.216-0.407-4.248-1.22c-1.032-0.813-1.547-1.932-1.547-3.354H11.173z"/>
</g>
</svg>
