<?xml version="1.0" encoding="utf-8"?>
<!-- Generator: Adobe Illustrator 16.0.0, SVG Export Plug-In . SVG Version: 6.00 Build 0)  -->
<!DOCTYPE svg PUBLIC "-//W3C//DTD SVG 1.1//EN" "http://www.w3.org/Graphics/SVG/1.1/DTD/svg11.dtd">
<svg version="1.1" id="Lager_1" xmlns="http://www.w3.org/2000/svg" xmlns:xlink="http://www.w3.org/1999/xlink" x="0px" y="0px"
	 width="283.462px" height="30.795px" viewBox="0 0 283.462 30.795" enable-background="new 0 0 283.462 30.795"
	 xml:space="preserve">
<g>
	<path d="M13.967,30.402l-1.098,0.006L0,0.396h4.312l9.019,21.072l8.975-21.072h4.268L13.967,30.402z"/>
	<path d="M69.21,6.995c-2.551-2.419-5.016-3.124-7.04-3.124c-2.771,0-4.751,1.451-4.751,3.563c0,5.764,12.978,5.675,12.978,15.222
		c0,4.707-3.563,8.139-8.403,8.139c-3.254,0-5.894-0.879-8.402-2.771v-5.455c2.199,2.816,4.971,4.355,7.918,4.355
		c3.345,0,4.883-2.111,4.883-3.783c0-6.203-12.978-6.907-12.978-15.134C53.417,3.124,57.024,0,62.523,0
		c2.288,0,4.575,0.704,6.688,2.112V6.995z"/>
	<path d="M87.705,0.381L101.05,30.4h-4.398l-4.003-8.844H79.89L76.105,30.4h-4.399L84.528,0.38L87.705,0.381z M81.562,17.686h9.325
		L86.049,6.818L81.562,17.686z"/>
	<path d="M38.409,0.381L51.754,30.4h-4.399l-4.003-8.844H30.594L26.81,30.4h-4.398L35.232,0.38L38.409,0.381z M32.265,17.686h9.326
		L36.753,6.818L32.265,17.686z"/>
	<path d="M129.866,30.4h-5.94l-15.264-14.827V30.4h-4.313V0.396h4.313v13.725l12.624-13.725h5.368l-13.065,14.209L129.866,30.4z"/>
	<path d="M139.983,0.396c6.072,0,9.856,3.211,9.856,8.402c0,3.475-1.805,6.07-5.018,7.347c2.729,1.803,4.4,4.575,6.688,8.314
		c1.278,2.068,2.026,3.079,4.095,5.94h-5.151l-3.958-6.16c-3.958-6.159-5.764-6.863-7.964-6.863h-1.802V30.4h-4.312V0.396H139.983z
		 M136.728,13.506h2.772c4.619,0,5.938-2.376,5.895-4.883c-0.043-2.817-1.717-4.532-5.895-4.532h-2.772V13.506z"/>
	<path d="M170.879,0c9.9,0,16.148,7.038,16.148,15.398c0,8.094-6.072,15.397-16.234,15.397c-9.811,0-16.014-7.258-16.014-15.397
		C154.779,7.082,161.156,0,170.879,0z M170.879,26.836c6.732,0,11.705-4.884,11.705-11.438c0-6.599-4.973-11.438-11.705-11.438
		c-6.686,0-11.657,4.839-11.657,11.438C159.222,21.952,164.193,26.836,170.879,26.836z"/>
	<path d="M219.729,30.4h-3.695L195.973,7.303V30.4h-4.045V0.396h3.43l20.325,23.229V0.396h4.047V30.4z"/>
	<path d="M239.024,0.378L252.371,30.4h-4.398l-4.002-8.844h-12.758L227.43,30.4h-4.399l12.82-30.02L239.024,0.378z M232.885,17.686
		h9.326l-4.842-10.867L232.885,17.686z"/>
	<path d="M283.462,30.4h-3.693L259.707,7.303V30.4h-4.049V0.396h3.434l20.326,23.229V0.396h4.044V30.4z"/>
</g>
</svg>
